<svg width="1024" height="512" viewBox="0 0 1024 512" fill="none" xmlns="http://www.w3.org/2000/svg">
<rect width="1024" height="512" fill="white"/>
<path d="M723.699 255.16L696.786 214.624H713.62L723.477 229.133C726.8 234.117 729.569 238.768 732.559 244.306L751.387 214.624H767.889L741.419 255.049L768 295.584H751.276L742.195 282.183C738.65 276.756 735.771 271.883 732.559 266.013L712.845 295.584H696.232L723.699 255.16Z" fill="#101010"/>
<path d="M667.939 297.024C651.658 297.024 640.251 285.174 640.251 268.228C640.251 251.062 651.437 239.211 667.496 239.211C683.887 239.211 694.298 250.176 694.298 267.232V271.33L653.098 271.44C654.095 281.076 659.19 285.949 668.161 285.949C675.581 285.949 680.454 283.069 682.005 277.864H694.52C692.194 289.825 682.226 297.024 667.939 297.024ZM667.607 250.286C659.633 250.286 654.759 254.606 653.43 262.802H680.897C680.897 255.27 675.692 250.286 667.607 250.286Z" fill="#101010"/>
<path d="M572.331 267.01C572.331 251.062 582.742 239.101 598.358 239.101C606.553 239.101 612.977 242.534 616.189 248.404L616.964 240.873H629.479V292.816C629.479 311.09 618.515 322.498 600.794 322.498C585.067 322.498 574.324 313.527 572.663 298.907H586.175C587.061 305.995 592.488 310.204 600.794 310.204C610.098 310.204 616.078 304.334 616.078 295.252V286.171C612.645 291.265 605.889 294.477 598.025 294.477C582.52 294.477 572.331 282.848 572.331 267.01ZM585.953 266.678C585.953 275.871 591.823 282.737 600.684 282.737C609.987 282.737 615.746 276.203 615.746 266.678C615.746 257.375 610.097 250.951 600.684 250.951C591.713 250.951 585.953 257.707 585.953 266.678Z" fill="#101010"/>
<path d="M529.343 297.024C513.505 297.024 503.648 285.395 503.648 268.45C503.648 251.394 513.616 239.211 530.118 239.211C537.76 239.211 544.516 242.423 547.95 247.85V213.184H561.351V295.584H548.946L548.06 287.057C544.738 293.369 537.65 297.024 529.343 297.024ZM532.333 284.62C541.747 284.62 547.839 277.864 547.839 268.007C547.839 258.15 541.747 251.283 532.333 251.283C522.919 251.283 517.16 258.261 517.16 268.007C517.16 277.753 522.919 284.62 532.333 284.62Z" fill="#101010"/>
<path d="M469.687 297.024C453.406 297.024 441.999 285.174 441.999 268.228C441.999 251.062 453.185 239.211 469.244 239.211C485.635 239.211 496.046 250.176 496.046 267.232V271.33L454.846 271.44C455.843 281.076 460.938 285.949 469.909 285.949C477.329 285.949 482.202 283.069 483.753 277.864H496.268C493.942 289.825 483.974 297.024 469.687 297.024ZM469.355 250.286C461.381 250.286 456.507 254.606 455.178 262.802H482.645C482.645 255.27 477.44 250.286 469.355 250.286Z" fill="#101010"/>
<path fill-rule="evenodd" clip-rule="evenodd" d="M408.824 322.202L332.412 189.852L256 322.202H376.462H408.824ZM272.17 294.241L348.547 217.91L376.462 322.202L272.17 294.241Z" fill="#101010"/>
</svg>
