<svg width="256" height="256" viewBox="0 0 256 256" fill="none" xmlns="http://www.w3.org/2000/svg">
<g clip-path="url(#clip0_338_31830)">
<rect width="256" height="256" fill="#04AEDB"/>
<path d="M193.976 161.861C183.318 161.861 174.548 170.496 174.548 181.29C174.548 191.948 183.183 200.718 193.976 200.718C204.769 200.718 213.404 192.083 213.404 181.29C213.404 170.496 204.769 161.861 193.976 161.861ZM205.714 181.424C205.714 187.766 200.452 192.892 193.976 192.892C187.635 192.892 182.508 187.631 182.508 181.155C182.508 174.813 187.77 169.687 194.246 169.687C200.587 169.821 205.714 175.083 205.714 181.424Z" fill="white"/>
<path d="M62.0268 161.861C51.2334 161.861 42.5986 170.631 42.5986 181.424C42.5986 192.083 51.2334 200.853 62.0268 200.853C72.8203 200.853 81.455 192.218 81.455 181.424C81.455 170.631 72.8203 161.861 62.0268 161.861ZM73.7647 181.424C73.6298 187.766 68.5029 192.892 62.0268 192.892C55.6857 192.758 50.5588 187.631 50.5588 181.155C50.5588 174.813 55.8206 169.687 62.2967 169.687C68.7727 169.687 73.7647 175.083 73.7647 181.424Z" fill="white"/>
<path d="M128 55.1406C117.342 55.1406 108.572 63.7754 108.572 74.5688C108.572 85.3623 117.207 93.997 128 93.997C138.794 93.997 147.429 85.3623 147.429 74.5688C147.429 63.9103 138.794 55.1406 128 55.1406ZM139.738 74.5688C139.738 80.91 134.611 86.0368 128.27 86.0368C121.929 86.0368 116.802 80.91 116.802 74.5688C116.802 68.2277 121.929 63.1008 128.27 63.1008C134.611 63.1008 139.738 68.2277 139.738 74.5688Z" fill="white"/>
<path d="M186.963 164.153L143.924 86.4402L143.519 85.7656L143.115 86.4402C141.631 88.3291 139.877 89.8131 137.718 90.8925L137.313 91.1623L137.583 91.5671L175.765 160.375C160.384 157.137 144.734 155.653 128.948 155.653C112.758 155.383 96.5679 156.867 80.7825 160.375L118.964 91.8369L119.234 91.4322L118.829 91.1623C116.806 90.083 114.917 88.5989 113.433 86.71L113.028 86.0354L112.623 86.71L69.5843 164.153L69.3145 164.558L69.989 164.828C72.1477 165.502 73.9017 168.066 75.7905 169.685L76.0604 169.954L76.3302 169.685H76.6C93.8695 165.502 111.544 163.478 129.218 163.883C146.488 163.613 163.757 165.502 180.487 169.685L180.757 170.089L181.161 169.685C183.05 168.066 184.939 165.502 186.963 164.828L187.638 164.558L186.963 164.153Z" fill="white"/>
<path d="M169.808 256H86.1929L128 214.192L169.808 256ZM256 169.809L214.193 128L256 86.1924V169.809ZM41.8081 128L0.000488281 169.808V86.1914L41.8081 128ZM128 41.8076L86.1929 0H169.808L128 41.8076Z" fill="black" fill-opacity="0.5"/>
</g>
<defs>
<clipPath id="clip0_338_31830">
<rect width="256" height="256" fill="white"/>
</clipPath>
</defs>
</svg>
