<svg width="256" height="256" viewBox="0 0 256 256" fill="none" xmlns="http://www.w3.org/2000/svg">
<g clip-path="url(#clip0_338_33920)">
<rect width="256" height="256" fill="#012169"/>
<path d="M127.754 172.704C153.797 150.382 190.381 128.679 210.471 120.867C207.371 118.882 202.534 116.03 197.078 112.93C171.159 121.487 140.899 140.461 113.864 161.915C118.453 165.388 123.289 168.984 127.754 172.704Z" fill="#E21837"/>
<path d="M115.849 112.061C112.004 110.201 107.788 108.465 104.563 106.977C94.7663 111.813 81.9929 119.13 65.8711 130.663C69.3435 132.523 73.0639 134.756 77.0324 136.988C89.4337 127.811 101.959 119.13 115.849 112.061Z" fill="white"/>
<path d="M139.04 101.399C134.327 98.7943 117.957 92.7176 106.672 90.1133C103.324 91.3534 98.6111 93.2136 95.3867 94.5778C99.4792 95.6939 114.733 99.7864 127.754 106.359C131.103 104.747 135.815 102.763 139.04 101.399Z" fill="#E21837"/>
<path d="M83.6055 99.7891C69.0959 106.486 53.8421 115.663 45.5332 120.995C48.5095 122.36 51.4858 123.476 55.5783 125.46C73.9324 113.059 88.318 105.494 94.0226 103.013C89.9302 101.525 86.0858 100.533 83.6055 99.7891Z" fill="white"/>
<path d="M149.952 97.5546C153.301 96.4384 157.145 95.4463 160.494 94.4542C150.82 90.3618 138.667 86.0213 127.754 83.293C126.018 83.789 120.809 85.1532 117.213 86.2693C120.933 87.3854 133.21 90.2378 149.952 97.5546ZM88.8135 144.184C92.7819 146.54 96.9984 149.764 101.091 152.493C128.25 131.41 155.037 115.165 184.428 105.988C180.336 103.879 176.739 102.019 172.151 99.7868C154.541 104.251 124.405 116.281 88.8135 144.184Z" fill="#E21837"/>
<g clip-path="url(#clip1_338_33920)">
<path d="M0 0H256V256H0V0Z" fill="#157FC4"/>
<path d="M108.388 106.523L123.307 113.065C107.293 119.579 92.3737 126.633 78.0092 135.337L63.1043 128.269C77.4752 119.61 92.6466 112.329 108.388 106.523ZM89.6145 99.4688C73.2065 104.24 57.4411 110.993 42.667 119.579L56.4625 125.012C71.1673 116.747 86.5042 109.661 102.329 103.821L89.6145 99.4688Z" fill="white"/>
<path d="M142.648 105.442C129.746 99.4794 116.456 94.3952 102.868 90.2245L88.5038 94.5765C102.868 98.9143 116.664 103.821 129.933 110.335L142.648 105.442ZM163.626 99.4689C150.371 93.4956 136.561 89.1436 122.751 85.332L109.496 88.6031C123.291 92.4005 137.115 97.8334 149.816 103.821L163.611 99.4689H163.626ZM197.873 110.875C165.092 121.834 134.034 137.392 105.627 157.083L126.065 170.665C152.575 150.015 181.844 133.161 213.332 119.579L197.873 110.875ZM174.676 100.009C140.587 108.931 108.14 123.239 78.5625 142.392L97.9047 152.731C126.619 133.161 158.093 118.484 191.786 108.159L174.676 100.009Z" fill="#E3555A"/>
</g>
<path d="M169.808 256H86.1929L128 214.192L169.808 256ZM41.8081 128L0.000488281 169.808V86.1924L41.8081 128ZM256 169.808L214.193 128L256 86.1924V169.808ZM128 41.8076L86.1929 0H169.808L128 41.8076Z" fill="black" fill-opacity="0.5"/>
</g>
<defs>
<clipPath id="clip0_338_33920">
<rect width="256" height="256" fill="white"/>
</clipPath>
<clipPath id="clip1_338_33920">
<rect width="256" height="256" fill="white"/>
</clipPath>
</defs>
</svg>
