<svg width="256" height="256" viewBox="0 0 256 256" fill="none" xmlns="http://www.w3.org/2000/svg">
<g clip-path="url(#clip0_338_34063)">
<rect width="256" height="256" fill="#2E3591"/>
<g clip-path="url(#clip1_338_34063)">
<path d="M85.8085 130.425C89.3201 132.181 91.9568 133.943 93.7157 137.451C95.4745 140.96 96.3493 144.483 96.3493 147.992C96.3493 151.516 95.4745 155.024 93.7157 157.658C91.9568 160.285 90.2011 162.928 87.5674 164.684C84.0527 165.556 81.416 166.437 77.9014 166.437C76.1488 166.437 74.3899 166.437 72.6372 164.684C71.7562 163.803 70.8783 162.041 70.8783 159.414V156.771V128.663C77.9107 128.663 82.3001 129.544 85.8085 130.425ZM70.8845 89.127C77.0328 89.127 82.3001 90.0085 84.9337 91.7795C87.5705 92.6516 90.2041 94.407 91.082 97.0345C92.8378 99.6774 93.7188 102.305 93.7188 106.7C93.7188 110.218 92.8378 113.727 91.082 115.485C89.3201 118.122 87.5674 119.884 84.9275 121.64C81.416 123.393 77.0328 123.393 70.8845 123.393V89.127ZM110.395 117.25C113.907 114.608 114.791 110.218 114.791 106.7C114.791 102.305 113.907 98.7964 111.276 95.2787C109.518 91.77 106.009 89.127 101.61 87.375C97.221 85.619 90.2011 84.7383 80.5412 84.7383H39.2715V86.4998C42.783 86.4998 45.4198 87.375 47.1755 88.2557C48.9313 89.127 49.8122 90.0085 49.8122 90.8988C50.6901 91.7795 51.5711 95.2787 51.5711 99.6774V155.896C51.5711 161.16 50.6901 163.803 49.8122 165.556C49.8122 166.437 48.9313 167.318 47.1755 168.199C45.4198 169.073 42.783 169.073 39.2715 169.073V171.707H83.1718C95.4683 171.707 105.131 169.073 111.276 163.809C116.541 159.414 119.178 154.143 119.178 147.117C119.178 140.966 116.541 136.576 112.148 132.196C108.637 129.544 102.488 127.791 94.5873 125.164C102.491 123.393 107.762 120.765 110.395 117.25Z" fill="white"/>
<path d="M183.304 129.531V156.773C183.304 161.178 183.304 163.805 182.422 164.677C182.422 166.439 180.667 167.32 179.786 168.201C178.915 169.076 176.271 169.076 173.638 169.076H171.001V171.709H216.676V169.076H213.151C211.405 169.076 208.763 169.076 207.897 168.201C206.135 167.32 205.254 166.439 204.373 164.677C204.373 163.805 204.373 161.163 204.373 156.773V99.6613C204.373 95.2595 204.373 92.6319 204.373 91.7574C205.254 89.9951 206.135 89.1144 207.015 88.2423C208.778 87.3521 210.524 86.4713 213.151 86.4713H216.676V84.7249H171.001V86.4808H173.638C176.271 86.4808 178.024 87.3521 179.786 88.2423C181.542 89.1144 182.422 89.9951 182.422 90.8759C183.304 92.6382 183.304 95.2657 183.304 99.6613V124.27H152.562V99.6613C152.562 95.2595 152.562 92.6319 153.434 91.7574C154.315 89.9951 155.19 89.1144 156.071 88.2423C157.833 87.3521 159.595 86.4713 162.222 86.4713H164.856V84.7249H119.178V86.4808H122.696C124.449 86.4808 127.082 87.3521 127.966 88.2423C129.719 89.1144 130.6 89.9951 131.481 90.8759C131.481 92.6382 131.481 95.2657 131.481 99.6613V156.779C131.481 161.178 131.481 163.805 131.481 164.686C130.6 166.439 129.719 167.32 128.844 168.201C127.082 169.082 125.33 169.082 122.696 169.082H119.178V171.719H164.856V169.082H162.222C159.595 169.082 157.833 169.082 156.071 168.201C155.19 167.32 153.434 166.439 153.434 164.686C152.562 163.805 152.562 161.178 152.562 156.779V129.531H183.304Z" fill="white"/>
</g>
<path d="M169.808 256H86.1929L128 214.192L169.808 256ZM41.8081 128L0.000488281 169.808V86.1924L41.8081 128ZM256 169.808L214.193 128L256 86.1924V169.808ZM128 41.8076L86.1929 0H169.808L128 41.8076Z" fill="black" fill-opacity="0.5"/>
</g>
<defs>
<clipPath id="clip0_338_34063">
<rect width="256" height="256" fill="white"/>
</clipPath>
<clipPath id="clip1_338_34063">
<rect width="177.459" height="89.4626" fill="white" transform="translate(39.2715 83.2695)"/>
</clipPath>
</defs>
</svg>
