<svg width="256" height="256" viewBox="0 0 256 256" fill="none" xmlns="http://www.w3.org/2000/svg">
<g clip-path="url(#clip0_338_34129)">
<path d="M0 0H256V256H0V0Z" fill="#009CDB"/>
<path d="M126.307 79.3352L123.667 80.2685C120.24 81.7085 117.134 83.7618 114.6 86.3218C111.618 82.6559 107.852 79.7059 103.578 77.6891C99.3045 75.6723 94.6328 74.6401 89.9073 74.6685C72.7341 74.6685 58.8009 87.8818 58.8009 104.242C58.8009 108.402 59.6942 112.388 61.3342 115.975C53.3743 120.401 48.001 128.735 48.001 138.241C48.001 152.441 59.9475 163.948 74.7208 163.948C76.5874 163.948 78.4274 163.774 80.214 163.414C84.2673 173.894 94.8406 181.334 107.214 181.334C119.107 181.334 129.32 174.441 133.694 164.628C137.027 166.188 140.747 167.041 144.747 167.041C154.2 167.041 162.427 162.068 166.747 154.721C168.96 155.121 171.227 155.348 173.52 155.348C192.586 155.348 208 140.535 208 122.201C208 103.868 192.573 89.0551 173.533 89.0551C168.547 89.0551 163.84 90.0817 159.56 91.8684C157.015 87.5954 153.398 84.0616 149.067 81.6176C144.735 79.1736 139.84 77.9042 134.867 77.9352C132.894 77.9352 130.96 78.1218 129.08 78.5218L126.307 79.3352Z" fill="white"/>
<path d="M169.808 256H86.1929L128 214.192L169.808 256ZM41.8081 128L0.000488281 169.808V86.1924L41.8081 128ZM256 169.808L214.193 128L256 86.1924V169.808ZM128 41.8076L86.1929 0H169.808L128 41.8076Z" fill="black" fill-opacity="0.5"/>
</g>
<defs>
<clipPath id="clip0_338_34129">
<rect width="256" height="256" fill="white"/>
</clipPath>
</defs>
</svg>
