<svg width="256" height="256" viewBox="0 0 256 256" fill="none" xmlns="http://www.w3.org/2000/svg">
<g clip-path="url(#clip0_338_34085)">
<rect width="256" height="256" fill="white"/>
<path fill-rule="evenodd" clip-rule="evenodd" d="M-0.000976562 256.001H256V0H-0.000976562V256.001Z" fill="#7399C6"/>
<path fill-rule="evenodd" clip-rule="evenodd" d="M154.134 49.7773V75.0417H150.807C147.96 62.6354 141.785 53.3199 133.237 52.8825C127.536 52.4379 124.209 55.5359 121.362 59.9677C118.515 65.2888 117.088 76.3683 117.088 89.6567C117.088 102.07 117.561 111.378 118.988 118.026C119.935 121.131 122.308 126.001 128.483 126.001C131.81 126.001 134.184 125.118 135.611 123.347C137.977 120.687 138.458 115.366 138.458 111.823V99.8542C138.458 95.4223 137.038 92.769 134.657 91.4351C132.764 90.5459 129.91 90.5459 128.49 90.1013V87.0033H155.081V150.383H151.761C150.334 145.506 149.387 141.957 147.006 137.969C144.64 133.982 140.358 129.55 133.237 129.55C125.636 129.106 119.935 133.538 119.935 140.185C119.935 149.049 125.636 151.265 136.084 156.586C146.059 161.9 158.889 166.339 158.889 181.843C158.889 196.91 145.106 206.225 129.437 206.225H104.265V175.64H107.586C111.86 198.688 122.308 202.676 129.437 202.676C138.458 202.676 142.732 197.354 142.732 189.825C142.259 180.072 135.131 176.529 125.162 171.653C110.913 164.123 104.265 160.573 104.265 148.167C104.739 137.525 113.76 130.884 123.735 128.224C102.838 126.001 96.6639 108.28 97.1372 89.2192C97.1372 70.1652 109.013 49.7773 132.284 49.7773H154.134Z" fill="white"/>
<path d="M169.808 256H86.1929L128 214.192L169.808 256ZM41.8081 128L0.000488281 169.808V86.1924L41.8081 128ZM256 169.808L214.193 128L256 86.1924V169.808ZM128 41.8076L86.1929 0H169.808L128 41.8076Z" fill="black" fill-opacity="0.5"/>
</g>
<defs>
<clipPath id="clip0_338_34085">
<rect width="256" height="256" fill="white"/>
</clipPath>
</defs>
</svg>
