<svg width="256" height="256" viewBox="0 0 256 256" fill="none" xmlns="http://www.w3.org/2000/svg">
<g clip-path="url(#clip0_338_33937)">
<rect width="256" height="256" fill="#0F62FE"/>
<path d="M93.457 66.7774H162.543V56.875H93.457V66.7774ZM93.457 85.6847H162.543V75.7801H93.457V85.6847ZM113.198 104.592H142.804V94.6895H113.198V104.592ZM113.198 123.499H142.804V113.595H113.198V123.499ZM113.198 142.404H142.804V132.502H113.198V142.404ZM113.198 161.312H142.804V151.407H113.198V161.312ZM93.457 180.217H162.543V170.314H93.457V180.217ZM93.457 199.126H162.543V189.221H93.457V199.126Z" fill="white"/>
<path d="M169.808 256H86.1929L128 214.192L169.808 256ZM41.8081 128L0.000488281 169.808V86.1924L41.8081 128ZM256 169.808L214.193 128L256 86.1924V169.808ZM128 41.8076L86.1929 0H169.808L128 41.8076Z" fill="black" fill-opacity="0.5"/>
</g>
<defs>
<clipPath id="clip0_338_33937">
<rect width="256" height="256" fill="white"/>
</clipPath>
</defs>
</svg>
