<svg width="256" height="256" viewBox="0 0 256 256" fill="none" xmlns="http://www.w3.org/2000/svg">
<g clip-path="url(#clip0_338_31938)">
<rect width="256" height="256" fill="#EB1700"/>
<path d="M91.9747 96.3681H80.776V143.06C80.776 150.65 77.8808 155.159 71.0186 155.159C64.1564 155.159 61.2613 150.366 61.2613 142.149V133.476L50.0625 136.272V140.153C50.0625 151.98 55.9391 161.023 71.0186 161.023C86.0981 161.023 91.9747 151.992 91.9747 140.153V96.3681ZM205.934 96.3666H194.735V143.059C194.735 150.648 191.84 155.157 184.977 155.157C178.115 155.157 175.22 150.365 175.22 142.147V133.474L164.021 136.271V140.151C164.021 151.979 169.898 161.021 184.977 161.021C200.057 161.021 205.934 151.991 205.934 140.151V96.3666ZM125.362 154.443C116.688 154.443 111.366 147.396 111.366 139.905C111.366 135.211 113.448 130.875 116.873 128.435L137.287 150.747C133.493 153.001 129.242 154.455 125.362 154.455M145.234 143.342L127.53 123.828C130.696 122.559 133.764 122.115 136.289 122.115C143.607 122.115 148.116 126.366 148.116 133.684C148.116 136.936 147.217 140.275 145.221 143.342M125.078 121.216L121.197 116.879C117.76 113.085 116.775 110.732 116.775 107.935C116.775 102.699 120.113 99.7176 125.349 99.7176C130.585 99.7176 133.838 102.785 133.838 108.391C133.838 113.541 131.312 118.419 125.078 121.216ZM125.62 94.9375C113.153 94.9375 107.017 101.898 107.017 110.559C107.017 115.253 109.001 119.959 114.249 125.639L114.335 125.823C105.49 130.074 101.424 136.936 101.424 143.983C101.424 153.284 108.557 161.058 119.584 161.058C125.904 161.058 133.308 158.434 139.998 153.74L145.418 159.617H159.599V159.161L148.042 146.422C152.921 140.644 155.718 134.324 155.718 128.805C155.718 121.943 151.11 117.335 143.891 117.335C140.096 117.335 135.846 118.419 133.049 119.503L132.864 119.146C139.727 115.438 142.622 112.013 142.622 107.22C142.622 100.358 136.474 94.9375 125.645 94.9375" fill="white"/>
<path d="M169.808 256H86.1929L128 214.192L169.808 256ZM41.8081 128L0.000488281 169.808V86.1924L41.8081 128ZM256 169.808L214.193 128L256 86.1924V169.808ZM128 41.8076L86.1929 0H169.808L128 41.8076Z" fill="black" fill-opacity="0.5"/>
</g>
<defs>
<clipPath id="clip0_338_31938">
<rect width="256" height="256" fill="white"/>
</clipPath>
</defs>
</svg>
