<svg width="256" height="256" viewBox="0 0 256 256" fill="none" xmlns="http://www.w3.org/2000/svg">
<g clip-path="url(#clip0_338_31872)">
<rect width="256" height="256" fill="#734026"/>
<path d="M156.573 93.2089V113.641C156.573 116.836 157.039 119.289 157.977 121.007C158.915 122.718 160.474 123.959 162.653 124.717C164.832 125.481 168.151 125.973 172.594 126.2V127.798H127.339V126.2C131.154 125.973 134.023 125.481 135.931 124.717C137.839 123.959 139.188 122.741 139.963 121.06C140.739 119.387 141.134 116.912 141.134 113.641V62.9579C141.134 52.5184 136.303 50.3987 128.967 50.3987C120.918 50.3987 115.994 52.5108 115.994 62.6172V119.326C115.994 132.143 107.464 144.331 90.6215 144.331C89.3187 144.331 88.0315 144.256 86.7598 144.112V142.741C90.7611 142.507 94.0025 141.182 96.4684 138.737C99.198 136.034 100.563 131.606 100.563 125.436V62.6096C100.563 59.4149 100.175 56.9546 99.3918 55.2437C98.6086 53.5328 97.2438 52.2988 95.2975 51.5342C93.3511 50.7772 90.5052 50.2776 86.7598 50.0505V48.4531H166.67C184.846 48.4531 196.098 57.3255 196.098 70.7174C196.098 86.0473 180.674 93.2089 166.887 93.2089H156.573ZM156.573 90.1429H162.149C171.633 90.1429 179.612 84.7225 179.612 70.831C179.612 53.8508 168.128 51.5191 162.436 51.5191H156.573V90.1429Z" fill="white"/>
<path d="M148.102 204.686C144.747 204.486 142.214 204.054 140.506 203.383C138.797 202.712 137.599 201.649 136.912 200.174C136.224 198.705 135.884 196.532 135.884 193.661V148.866C135.884 146.055 136.224 143.902 136.912 142.4C137.599 140.898 138.797 139.815 140.506 139.144C142.214 138.48 144.747 138.041 148.102 137.842V136.439H123.4L100.441 186.897L76.7663 136.439H50.8457V137.842C54.1947 138.041 56.7064 138.48 58.3877 139.144C60.0622 139.815 61.2398 140.885 61.9273 142.354C62.6148 143.822 62.9551 145.995 62.9551 148.866V193.661C62.9551 196.532 62.608 198.705 61.9273 200.174C61.2466 201.649 60.0622 202.719 58.3877 203.383C56.7132 204.054 54.1947 204.486 50.8457 204.686V206.088H79.7409V204.686C76.3919 204.486 73.8734 204.054 72.1989 203.383C70.5244 202.712 69.34 201.642 68.6593 200.174C67.9718 198.705 67.6315 196.532 67.6315 193.661V149.172H67.9378L95.7575 207.39H96.0638L122.032 148.966H122.338V193.661C122.338 196.532 122.012 198.705 121.365 200.174C120.718 201.649 119.534 202.719 117.825 203.383C116.117 204.054 113.578 204.486 110.229 204.686V206.088H148.102V204.686Z" fill="white"/>
<path d="M156.325 170.695C156.325 189.972 168.332 201.854 183.471 201.754C194.825 201.655 200.76 195.667 203.728 192.371L205.158 193.867C200.76 199.761 191.557 207.449 178.359 207.549C154.419 207.649 140.506 191.773 140.506 171.698C140.506 150.626 157.183 134.844 179.278 134.844C190.734 134.844 198.616 137.774 203.422 140.373V160.707L201.373 160.74C198.575 149.689 193.089 138.439 180.299 138.439C167.509 138.439 156.325 150.32 156.325 170.695Z" fill="white"/>
<path d="M169.808 256H86.1929L128 214.192L169.808 256ZM256 169.809L214.193 128L256 86.1924V169.809ZM41.8081 128L0.000488281 169.808V86.1914L41.8081 128ZM128 41.8076L86.1929 0H169.808L128 41.8076Z" fill="black" fill-opacity="0.5"/>
</g>
<defs>
<clipPath id="clip0_338_31872">
<rect width="256" height="256" fill="white"/>
</clipPath>
</defs>
</svg>
