<svg width="256" height="256" viewBox="0 0 256 256" fill="none" xmlns="http://www.w3.org/2000/svg">
<g clip-path="url(#clip0_338_34133)">
<path d="M0 0H256V256H0V0Z" fill="#005590"/>
<path d="M90.7428 147.117C83.4285 145.071 76.64 143.654 70.3428 143.654C63.7028 143.654 58.4457 146.648 58.4457 151.299C58.4457 155.665 62.3543 158.271 69.3371 158.271C76.4914 158.271 83.7714 153.585 90.7428 147.117ZM69.2571 162.282C56.2057 162.282 48 158.191 48 152.202C48 143.654 60.9371 139.197 76.16 139.197C82.4571 139.197 89.3257 140.031 96.5599 141.288C99.3942 138.259 102.194 135.025 104.88 131.871C110.251 125.574 118.148 116.511 124.766 111.162C137.28 101.025 153.28 93.7109 170.171 93.7109C191.177 93.7109 208 101.197 208 112.385C208 118.797 202.034 124.351 191.36 124.785L191.028 122.728C193.268 121.631 196.023 119.665 196.023 113.597C196.023 105.642 187.566 97.7338 172.011 97.7338C157.051 97.7338 148.514 105.128 138.891 115.688C133.863 121.208 128.446 128.054 123.52 133.402C119.881 137.328 115.954 140.976 111.771 144.317C128.628 147.905 146.457 152.088 162.948 152.088C179.92 152.088 187.634 147.437 191.588 143.574L192.674 145.231C188.423 154.442 175.543 162.282 159.108 162.282C138.034 162.282 119.234 156.019 102.754 150.785C91.2228 158.054 79.2914 162.282 69.2571 162.282Z" fill="white"/>
<path d="M169.808 256H86.1929L128 214.192L169.808 256ZM41.8081 128L0.000488281 169.808V86.1924L41.8081 128ZM256 169.808L214.193 128L256 86.1924V169.808ZM128 41.8076L86.1929 0H169.808L128 41.8076Z" fill="black" fill-opacity="0.5"/>
</g>
<defs>
<clipPath id="clip0_338_34133">
<rect width="256" height="256" fill="white"/>
</clipPath>
</defs>
</svg>
