<svg width="256" height="256" viewBox="0 0 256 256" fill="none" xmlns="http://www.w3.org/2000/svg">
<g clip-path="url(#clip0_338_31917)">
<rect width="256" height="256" fill="#2363C4"/>
<path d="M69.7529 185.311H89.9544L93.7284 114.535L94.5505 95.3201H94.8789L99.1539 114.535L115.573 185.311H140.865L157.448 114.535L161.552 95.3201H161.88L162.702 114.535L166.648 185.311H187.664L180.766 72.002H147.269L132.157 139.99L128.876 157.232H128.548L125.095 139.99L109.99 72.002H76.4858L69.7529 185.311Z" fill="white"/>
<path d="M169.808 256H86.1929L128 214.192L169.808 256ZM256 169.809L214.193 128L256 86.1924V169.809ZM41.8081 128L0.000488281 169.808V86.1914L41.8081 128ZM128 41.8076L86.1929 0H169.808L128 41.8076Z" fill="black" fill-opacity="0.5"/>
</g>
<defs>
<clipPath id="clip0_338_31917">
<rect width="256" height="256" fill="white"/>
</clipPath>
</defs>
</svg>
