<svg width="256" height="256" viewBox="0 0 256 256" fill="none" xmlns="http://www.w3.org/2000/svg">
<g clip-path="url(#clip0_338_33905)">
<rect width="256" height="256" fill="#009C97"/>
<path fill-rule="evenodd" clip-rule="evenodd" d="M168.679 88.5117C168.679 66.6348 150.891 48.8451 129.014 48.8451C107.136 48.8451 89.1416 66.6348 89.1416 88.5117H168.679Z" fill="white"/>
<path fill-rule="evenodd" clip-rule="evenodd" d="M168.679 167.637C168.679 189.514 150.891 207.508 129.014 207.508C107.136 207.508 89.1416 189.514 89.1416 167.637H168.679Z" fill="white"/>
<path fill-rule="evenodd" clip-rule="evenodd" d="M124.72 127.968C104.681 130.014 88.9368 147.393 88.9368 167.84C67.0596 167.84 49.2715 150.051 49.2715 128.174C49.2715 106.09 67.0596 88.3031 88.9368 88.3031C88.9368 108.952 104.681 126.129 124.72 127.968Z" fill="white"/>
<path fill-rule="evenodd" clip-rule="evenodd" d="M133.511 127.968C153.549 130.014 169.292 147.393 169.292 167.84C191.171 167.84 208.959 150.051 208.959 128.174C208.959 106.09 191.171 88.3031 169.089 88.3031C169.089 108.952 153.549 126.129 133.511 127.968Z" fill="white"/>
<path d="M169.808 256H86.1929L128 214.192L169.808 256ZM41.8081 128L0.000488281 169.808V86.1924L41.8081 128ZM256 169.808L214.193 128L256 86.1924V169.808ZM128 41.8076L86.1929 0H169.808L128 41.8076Z" fill="black" fill-opacity="0.5"/>
</g>
<defs>
<clipPath id="clip0_338_33905">
<rect width="256" height="256" fill="white"/>
</clipPath>
</defs>
</svg>
