<svg width="256" height="256" viewBox="0 0 256 256" fill="none" xmlns="http://www.w3.org/2000/svg">
<g clip-path="url(#clip0_338_34098)">
<rect width="256" height="256" fill="#666666"/>
<path d="M192 64L208 48V208L192 192V64ZM64 64L48 48V208L64 192V64ZM173.008 79.9999L188 64H67.9999L83.0079 79.9999H173.008ZM170.768 176L188 192H67.9999L84.3519 176H170.768ZM160 105.728L176 87.9999V168L160 152.992V105.728ZM95.9999 105.072L79.9999 87.9999V168L95.9999 152.992V105.072ZM128 137.888L151.776 112H104.208L128 137.888Z" fill="white"/>
<path d="M169.808 256H86.1929L128 214.192L169.808 256ZM41.8081 128L0.000488281 169.808V86.1924L41.8081 128ZM256 169.808L214.193 128L256 86.1924V169.808ZM128 41.8076L86.1929 0H169.808L128 41.8076Z" fill="black" fill-opacity="0.5"/>
</g>
<defs>
<clipPath id="clip0_338_34098">
<rect width="256" height="256" fill="white"/>
</clipPath>
</defs>
</svg>
