<svg width="256" height="256" viewBox="0 0 256 256" fill="none" xmlns="http://www.w3.org/2000/svg">
<g clip-path="url(#clip0_338_31893)">
<rect width="256" height="256" fill="#00A3EE"/>
<path fill-rule="evenodd" clip-rule="evenodd" d="M63.9971 64H124.889C124.885 84.2972 124.889 104.595 124.885 124.892H63.9971V64Z" fill="white"/>
<path fill-rule="evenodd" clip-rule="evenodd" d="M131.107 64H191.999C191.999 84.2972 192.003 104.595 191.995 124.892C171.702 124.888 151.404 124.892 131.111 124.892C131.104 104.595 131.107 84.2972 131.107 64Z" fill="white"/>
<path fill-rule="evenodd" clip-rule="evenodd" d="M63.9971 131.094C84.2942 131.101 104.592 131.09 124.889 131.101C124.892 151.398 124.889 171.692 124.889 191.989H63.9971V131.094Z" fill="white"/>
<path fill-rule="evenodd" clip-rule="evenodd" d="M131.105 131.108C151.399 131.101 171.696 131.105 191.993 131.105V191.996H131.102C131.105 171.699 131.098 151.401 131.105 131.108Z" fill="white"/>
<path d="M169.808 256H86.1929L128 214.192L169.808 256ZM256 169.809L214.193 128L256 86.1924V169.809ZM41.8081 128L0.000488281 169.808V86.1914L41.8081 128ZM128 41.8076L86.1929 0H169.808L128 41.8076Z" fill="black" fill-opacity="0.5"/>
</g>
<defs>
<clipPath id="clip0_338_31893">
<rect width="256" height="256" fill="white"/>
</clipPath>
</defs>
</svg>
