<svg width="256" height="256" viewBox="0 0 256 256" fill="none" xmlns="http://www.w3.org/2000/svg">
<g clip-path="url(#clip0_338_34115)">
<path d="M0 0H256V256H0V0Z" fill="#00AAD9"/>
<path d="M88.2489 42.668C76.2311 42.668 66.4889 52.1115 66.4889 63.7595C66.4889 75.4075 76.2311 84.8511 88.2489 84.8511C100.252 84.8511 109.995 75.4075 109.995 63.7595C109.995 52.1115 100.267 42.668 88.2489 42.668ZM105.301 83.0164C104.775 83.4289 103.836 84.1542 102.571 84.9791C98.4746 87.852 91.0506 91.0235 79.744 88.108C67.7689 84.9933 63.7155 74.1844 62.7342 71.5817L62.7058 71.5249C61.7671 69.0217 60.4302 68.8226 60.4302 72.5204C60.4302 81.7933 64.6684 87.4111 66.0764 89.0182C67.4986 90.6111 68.1671 92.1898 67.3849 93.1L67.1146 93.4129C65.536 95.2902 63.5022 97.6795 62.9191 99.2155C62.8145 99.6337 62.7714 100.065 62.7911 100.496C62.7911 100.78 62.7911 101.064 62.7626 101.249C62.5209 102.856 61.1271 104.506 59.264 106.682C58.7219 107.317 58.1862 107.957 57.6569 108.602C56.1778 110.423 57.088 112.371 58.3395 113.722C58.9084 114.305 59.4773 114.988 60.0177 115.6C60.928 116.652 61.7244 117.562 62.1226 117.776C63.4453 118.515 64.5973 118.515 65.7209 118.515C66.5031 118.515 67.2853 118.515 68.1244 118.771L68.3093 118.814C70.3289 119.44 73.2729 120.336 75.3066 123.863C76.1315 125.285 76.9706 126.935 77.8666 128.712C80.3129 133.491 83.2426 139.223 87.5378 144.215C90.1404 147.201 90.1689 152.577 90.1831 154.497V154.583C90.3395 170.284 81.9769 184.848 76.4729 194.433L76.1884 194.931C74.88 197.207 75.1502 199.07 76.8995 199.098H85.5751C88.0782 199.098 88.1066 198.131 88.1351 197.136C88.1635 196.68 88.1778 196.211 88.4195 195.813C88.6044 195.5 88.96 195.429 89.344 195.344C90.112 195.187 91.0506 194.974 91.2355 192.812C91.264 192.257 91.3209 191.774 91.6195 189.683C93.4684 176.698 100.011 157.399 104.064 154.881C110.052 158.679 117.248 164.979 119.367 177.808C120.021 181.719 120.405 185.203 120.021 188.545C119.857 190.692 119.5 192.82 118.955 194.903C117.817 198.373 118.741 199.127 120.462 199.056H129.65C132.096 199.056 132.082 198.103 132.068 197.15C132.068 196.695 132.068 196.225 132.338 195.87C132.537 195.628 132.836 195.514 133.134 195.4C133.732 195.173 134.315 194.945 134.13 193.594C132.921 187.664 130.716 182.216 128.526 176.741C126.535 171.763 124.544 166.8 123.264 161.48C121.401 153.559 126.322 148.538 130.489 147.344C137.074 145.438 146.091 148.581 147.257 149.221C147.399 149.292 147.541 149.363 147.655 149.448C148.366 149.861 148.551 149.96 149.276 149.377C156.729 143.418 160.171 146.32 160.356 146.49C161.209 147.287 161.806 151.468 161.849 152.321C162.745 169.53 147.086 186.17 140.686 192.983C139.762 193.978 139.022 194.746 138.567 195.287C136.96 197.207 137.856 199.127 139.463 199.098H141.34C143.9 199.098 147.996 199.098 149.049 199.07C151.367 198.999 151.324 198.117 151.31 197.221C151.282 196.766 151.268 196.325 151.552 195.955C151.751 195.713 152.05 195.642 152.363 195.557C152.86 195.429 153.429 195.287 153.785 194.376C156.544 187.237 162.219 173.541 174.023 164.296C175.047 163.486 176.014 161.48 176.882 156.901C177.15 155.589 177.492 154.292 177.906 153.018L178.105 152.378C184.747 160.755 185.557 175.731 174.293 195.429C173.113 197.491 173.867 199.084 175.204 199.084H176.341C178.404 199.112 182.528 199.127 184.021 199.084C186.453 198.999 186.411 197.975 186.354 196.922V196.439C186.354 195.87 186.34 194.931 188.444 194.931L190.72 194.96H192.085C193.38 194.974 196.252 195.002 197.376 194.888C198.841 194.732 198.983 193.267 199.012 191.376C199.04 188.56 199.196 156.389 199.04 152.449C198.997 151.454 198.997 149.818 198.997 147.799C198.969 138.725 198.94 121.473 195.314 115.173C190.052 106 179.499 106.853 174.564 107.251H174.492C172.871 107.393 170.951 107.592 168.789 107.82C162.247 108.488 153.472 109.384 143.972 109.427C128.412 109.484 112.128 104.549 106.88 102.97C102.227 101.716 97.6774 100.109 93.2693 98.1631C90.8089 97.0253 91.8898 96.5133 92.9849 95.9871L93.1413 95.916C98.7875 93.1853 103.495 90.284 106.439 85.676C108.686 82.1346 107.833 81.0111 105.344 82.9738L105.301 83.0164ZM190.407 122.995V122.085C190.564 120.492 191.545 120.634 192.384 122.853C194.603 128.926 193.92 151.838 193.792 155.991L193.778 156.616C193.792 157.37 192.825 157.953 192.156 157.171C191.573 156.432 190.393 150.103 189.611 145.921L189.099 143.162C188.672 141.043 189.013 138.938 189.412 136.535C189.596 135.397 189.796 134.216 189.924 132.922C190.267 129.625 190.429 126.31 190.407 122.995Z" fill="#004F93"/>
<path d="M89.1015 47.0781C80.9948 47.0781 74.4526 53.4355 74.4526 61.2719C74.4526 69.1226 81.0091 75.4799 89.1015 75.4799C97.1797 75.4799 103.75 69.1226 103.75 61.2719C103.75 53.4497 97.1797 47.0781 89.1015 47.0781ZM131.341 115.174L131.384 115.43C131.868 119.099 131.811 123.153 131.782 124.419V124.547C131.74 127.647 134.2 128.344 135.878 128.813L136.092 128.87C140.558 130.15 149.603 129.78 155.818 126.964C160.682 124.76 157.738 116.867 156.913 114.947C156.06 112.955 154.396 112.216 151.793 112.429C148.961 112.581 146.125 112.661 143.288 112.671C141.509 112.678 139.73 112.621 137.955 112.5C136.846 112.443 135.594 112.358 134.058 112.301C130.943 112.145 131.114 113.411 131.356 115.188L131.341 115.174ZM169.386 113.453C171.889 116.141 173.368 120.564 173.681 122.47C174.008 124.347 176.654 123.622 176.981 121.844C177.464 119.213 176.597 114.847 174.591 112.515C173.667 111.419 172.102 110.95 170.254 111.291C168.518 111.604 168.049 112.003 169.386 113.453ZM132.138 141.613L132.323 141.571C136.789 140.106 145.265 139.124 160.312 140.433C167.395 141.059 172.586 143.163 177.222 145.979L177.464 146.136C179.171 147.203 183.452 149.919 185.301 141.642C185.798 139.537 186.709 134.971 186.865 132.852L186.922 132.355C187.292 128.799 189.098 111.306 178.73 111.377C177.066 111.391 177.194 112.031 177.635 112.742C178.278 113.859 178.761 115.061 179.071 116.312C180.294 121.091 179.313 123.651 177.606 125.272C175.843 126.922 172.387 127.064 171.733 124.66C169.656 117.194 166.94 111.092 160.881 111.875C159.63 112.045 159.516 113.055 160.127 114.506C160.668 115.814 161.464 119.313 161.734 122.1C162.076 125.855 160.341 127.619 157.653 129.169C153.059 131.814 141.838 133.507 133.802 131.373C128.924 130.093 128.767 126.509 128.767 125.13L128.782 123.679C128.827 121.603 128.813 119.525 128.739 117.45C128.383 113.923 127.957 111.96 125.596 111.747C123.263 111.533 123.278 111.803 123.377 113.169C123.436 113.836 123.445 114.506 123.406 115.174V115.203C123.391 115.914 122.936 128.543 113.279 128.287C112.774 128.289 112.274 128.175 111.819 127.955C111.363 127.735 110.964 127.414 110.652 127.016C110.339 126.618 110.121 126.155 110.015 125.66C109.908 125.166 109.916 124.654 110.037 124.163C110.89 120.536 111.388 116.952 111.274 113.027V112.571C111.203 109.926 111.189 109.158 105.201 107.281L105.045 107.238C101.489 106.129 99.8535 105.617 98.6162 106.1C97.5637 106.499 96.7957 107.622 95.3593 109.67L94.89 110.353C92.2784 114.37 90.0771 118.639 88.3193 123.096C85.4464 130.605 87.9779 135.469 89.8553 138.641C91.0215 140.632 94.2073 143.604 97.8766 145.723C105.557 150.132 111.302 154.015 116.863 158.168C118.47 159.348 119.423 159.675 119.494 156.333C119.694 145.482 130.204 142.225 132.152 141.627L132.138 141.613ZM89.7131 100.895C87.7594 99.87 85.8202 98.8174 83.8962 97.7377L83.4126 97.4532C76.7282 93.6843 73.3006 91.7359 70.7264 93.7555C67.9815 95.8888 65.8908 98.8186 65.5211 99.8568C65.3721 100.367 65.2767 100.891 65.2366 101.421C65.1228 102.502 64.9806 103.768 64.3833 104.479C64.0988 104.806 63.7717 105.261 63.3877 105.787C62.6971 106.757 61.9713 107.701 61.2117 108.618C59.5051 110.609 60.2873 111.462 61.8659 113.169L62.7904 114.221C63.6722 115.245 65.0517 115.359 66.7442 115.487C68.9059 115.643 71.594 115.857 74.4526 118.047C76.8562 119.882 77.8091 121.332 80.6535 125.67L81.2793 126.623C82.3886 128.315 83.0713 127.32 83.9815 125.002C85.2615 121.773 89.6277 112.771 92.9415 107.85L93.1548 107.551C94.2357 105.972 95.4873 104.138 93.5246 102.971C92.2681 102.254 90.9973 101.562 89.7131 100.895ZM69.5886 102.004C67.498 98.5768 75.1353 97.5955 75.4908 98.6621C75.8606 99.7288 71.6793 105.446 69.5886 102.004ZM113.521 122.342C113.976 120.266 114.83 116.397 114.417 111.832C114.246 109.812 114.673 109.699 117.304 110.125C119.978 110.552 120.006 111.22 120.021 112.685V112.827C120.163 119.284 118.428 123.494 116.152 124.717C114.886 125.386 113.279 125.059 113.251 123.807C113.251 123.565 113.365 123.053 113.521 122.328V122.342Z" fill="white"/>
<path d="M169.808 256H86.1929L128 214.192L169.808 256ZM41.8081 128L0.000488281 169.808V86.1924L41.8081 128ZM256 169.808L214.193 128L256 86.1924V169.808ZM128 41.8076L86.1929 0H169.808L128 41.8076Z" fill="black" fill-opacity="0.5"/>
</g>
<defs>
<clipPath id="clip0_338_34115">
<rect width="256" height="256" fill="white"/>
</clipPath>
</defs>
</svg>
