<svg width="256" height="256" viewBox="0 0 256 256" fill="none" xmlns="http://www.w3.org/2000/svg">
<g clip-path="url(#clip0_338_34120)">
<path d="M0 0H256V256H0V0Z" fill="#F80000"/>
<path d="M157.333 72C189.734 72 216 97.0721 216 128C216 158.928 189.734 184 157.333 184H98.6667C66.266 184 40 158.928 40 128C40 97.0721 66.266 72 98.6667 72H157.333ZM98.6667 100C82.4663 100 69.3333 112.536 69.3333 128C69.3333 143.464 82.4663 156 98.6667 156H157.333C173.534 156 186.667 143.464 186.667 128C186.667 112.536 173.534 100 157.333 100H98.6667Z" fill="white"/>
<path d="M169.808 256H86.1929L128 214.192L169.808 256ZM41.8081 128L0.000488281 169.808V86.1924L41.8081 128ZM256 169.808L214.193 128L256 86.1924V169.808ZM128 41.8076L86.1929 0H169.808L128 41.8076Z" fill="black" fill-opacity="0.5"/>
</g>
<defs>
<clipPath id="clip0_338_34120">
<rect width="256" height="256" fill="white"/>
</clipPath>
</defs>
</svg>
