<svg width="256" height="256" viewBox="0 0 256 256" fill="none" xmlns="http://www.w3.org/2000/svg">
<g clip-path="url(#clip0_338_31947)">
<rect width="256" height="256" fill="#0000C9"/>
<path d="M68.5496 132.127C80.4963 126.438 101.403 124.731 127.999 128.003L135.536 100.411C97.1363 95.4337 69.1185 100.98 64.4252 118.474L64.283 119.185C63.4296 123.309 64.9941 127.718 68.5496 131.985V132.127Z" fill="#3D96F7"/>
<path d="M187.452 123.875C175.363 129.564 154.598 131.271 128.003 127.999L120.465 155.591C158.865 160.568 186.883 155.022 191.576 137.528L191.718 136.817C192.571 132.693 191.007 128.284 187.452 124.017V123.875Z" fill="white"/>
<path d="M90.0221 56.8906L82.4844 84.4817C127.427 87.7528 173.08 106.1 187.444 123.877C192.991 121.317 196.547 117.904 197.969 113.637L191.711 136.82V137.531L196.689 118.9C198.395 112.926 199.107 109.94 199.107 107.522C199.107 86.1884 143.213 60.1617 90.0221 56.8906Z" fill="#3D96F7"/>
<path d="M187.453 123.875C191.009 128.284 192.573 132.693 191.72 136.817L197.978 113.777C196.555 118.044 192.858 121.457 187.453 124.017V123.875Z" fill="#3D96F7"/>
<path d="M68.5528 132.125C63.0062 134.685 59.4506 138.098 57.8862 142.365C57.1751 145.209 56.8906 146.916 56.8906 148.481C56.8906 169.814 112.784 195.841 165.975 199.112L173.513 171.521C128.571 168.249 82.9173 149.903 68.5528 132.125Z" fill="white"/>
<path d="M68.5518 132.122C64.9962 127.713 63.4318 123.304 64.2851 119.18L58.0273 142.077V142.362C59.4496 138.095 63.0051 134.682 68.5518 132.122Z" fill="white"/>
<path d="M169.808 256H86.1929L128 214.192L169.808 256ZM41.8081 128L0.000488281 169.808V86.1924L41.8081 128ZM256 169.808L214.193 128L256 86.1924V169.808ZM128 41.8076L86.1929 0H169.808L128 41.8076Z" fill="black" fill-opacity="0.5"/>
</g>
<defs>
<clipPath id="clip0_338_31947">
<rect width="256" height="256" fill="white"/>
</clipPath>
</defs>
</svg>
