<svg width="256" height="256" viewBox="0 0 256 256" fill="none" xmlns="http://www.w3.org/2000/svg">
<g clip-path="url(#clip0_338_34124)">
<g clip-path="url(#clip1_338_34124)">
<path d="M0 0H256V256H0V0Z" fill="#666666"/>
<path fill-rule="evenodd" clip-rule="evenodd" d="M170.667 104.889C170.667 116.205 166.172 127.057 158.17 135.059C150.169 143.06 139.316 147.556 128 147.556C116.684 147.556 105.832 143.06 97.8303 135.059C89.8288 127.057 85.3336 116.205 85.3336 104.889C85.3336 93.573 89.8288 82.7206 97.8303 74.719C105.832 66.7174 116.684 62.2222 128 62.2222C139.316 62.2222 150.169 66.7174 158.17 74.719C166.172 82.7206 170.667 93.573 170.667 104.889ZM184.889 104.889C184.889 119.977 178.895 134.447 168.227 145.115C157.558 155.784 143.088 161.778 128 161.778C112.912 161.778 98.4424 155.784 87.7737 145.115C77.105 134.447 71.1113 119.977 71.1113 104.889C71.1113 89.801 77.105 75.3311 87.7737 64.6624C98.4424 53.9936 112.912 48 128 48C143.088 48 157.558 53.9936 168.227 64.6624C178.895 75.3311 184.889 89.801 184.889 104.889ZM128 189.867L176.498 166.158L184.889 178.19L128 204.444L71.1113 178.19L79.5024 166.158L128 189.867Z" fill="white"/>
</g>
<path d="M169.808 256H86.1929L128 214.192L169.808 256ZM41.8081 128L0.000488281 169.808V86.1924L41.8081 128ZM256 169.808L214.193 128L256 86.1924V169.808ZM128 41.8076L86.1929 0H169.808L128 41.8076Z" fill="black" fill-opacity="0.5"/>
</g>
<defs>
<clipPath id="clip0_338_34124">
<rect width="256" height="256" fill="white"/>
</clipPath>
<clipPath id="clip1_338_34124">
<rect width="256" height="256" fill="white"/>
</clipPath>
</defs>
</svg>
