<svg width="256" height="256" viewBox="0 0 256 256" fill="none" xmlns="http://www.w3.org/2000/svg">
<g clip-path="url(#clip0_338_33950)">
<rect width="256" height="256" fill="#EE222B"/>
<g clip-path="url(#clip1_338_33950)">
<path d="M0 0H256V256H0V0Z" fill="#4BA0DA"/>
<path fill-rule="evenodd" clip-rule="evenodd" d="M128.02 207.371C108.992 207.371 95.1139 198.525 85.9538 184.215C76.7938 169.866 72.3906 150.012 72.3906 127.997C72.3906 106.02 76.7938 86.1668 85.9932 71.8173C90.3125 64.5809 96.4753 58.6207 103.852 54.5455C111.229 50.4704 119.555 48.4263 127.98 48.6222C147.008 48.6222 160.886 57.5071 170.046 71.8173C179.206 86.1668 183.609 106.02 183.609 128.036C183.609 150.012 179.206 169.866 170.046 184.255C165.713 191.491 159.534 197.445 152.142 201.507C144.751 205.569 136.412 207.593 127.98 207.371H128.02ZM104.353 133.343C115.478 132.046 122.319 119.662 122.437 105.431C122.516 92.2211 115.478 78.9724 108.874 75.9846C104.549 74.0189 102.308 77.2819 100.225 80.2698C99.3598 81.6064 98.4556 82.9038 97.4728 83.6508C96.0968 84.6336 95.2712 84.8302 94.6029 85.0661C93.969 85.189 93.383 85.4889 92.9124 85.9309C94.8781 96.8602 94.996 105.47 95.1926 118.247L95.3105 127.525C95.625 141.835 95.1139 161.335 90.2784 173.915C102.387 162.435 103.252 143.604 103.606 135.427V134.955C103.645 134.169 103.802 133.383 104.392 133.383L104.353 133.343ZM103.448 79.4049C103.839 78.6734 104.461 78.0925 105.218 77.7537C107.183 76.8495 109.581 79.4442 110.014 81.7637C112.097 92.6143 113.395 111.799 109.817 125.638C109.524 126.621 109.029 127.531 108.363 128.311C107.766 129.041 106.995 129.608 106.122 129.962C105.06 130.316 103.606 130.08 103.645 128.468C103.92 116.635 103.252 95.0517 102.859 82.0782C102.809 81.15 103.012 80.2258 103.448 79.4049ZM124.167 148.794C129.268 125.507 130.067 101.485 126.526 77.911C131.165 81.9996 136.551 102.679 141.779 123.2C143.352 118.09 144.61 112.546 145.868 107.042C148.423 95.838 150.979 84.6336 156.129 76.3777C155.382 120.291 157.505 143.997 167.726 173.561C156.168 163.182 151.293 143.683 147.676 125.992C145.003 131.338 143.863 147.339 142.644 164.519L142.172 170.888C140.545 164.538 139.246 158.108 138.28 151.624C137.219 144.862 136.157 138.297 133.052 127.879C132.659 129.451 132.187 131.81 131.676 134.562C129.749 144.823 126.683 161.413 117.326 170.495L119.292 164.912C121.218 159.762 123.145 154.455 124.167 148.794Z" fill="white"/>
</g>
<path d="M169.808 256H86.1929L128 214.192L169.808 256ZM41.8081 128L0.000488281 169.808V86.1924L41.8081 128ZM256 169.808L214.193 128L256 86.1924V169.808ZM128 41.8076L86.1929 0H169.808L128 41.8076Z" fill="black" fill-opacity="0.5"/>
</g>
<defs>
<clipPath id="clip0_338_33950">
<rect width="256" height="256" fill="white"/>
</clipPath>
<clipPath id="clip1_338_33950">
<rect width="256" height="256" fill="white"/>
</clipPath>
</defs>
</svg>
