<svg width="256" height="256" viewBox="0 0 256 256" fill="none" xmlns="http://www.w3.org/2000/svg">
<g clip-path="url(#clip0_338_31934)">
<rect width="256" height="256" fill="#1434CB"/>
<path d="M54.9341 67.0742L54.2656 70.9569C54.2656 70.9569 65.8632 73.079 76.3103 77.3153C89.7618 82.1697 90.7179 84.9991 92.9838 93.775L117.667 188.93H150.758L201.734 67.0742H168.722L135.965 149.924L122.6 79.6939C121.375 71.6565 115.164 67.0703 107.566 67.0703L54.9341 67.0742Z" fill="white"/>
<path d="M169.808 256H86.1929L128 214.192L169.808 256ZM256 169.809L214.193 128L256 86.1924V169.809ZM41.8081 128L0.000488281 169.808V86.1914L41.8081 128ZM128 41.8076L86.1929 0H169.808L128 41.8076Z" fill="black" fill-opacity="0.5"/>
</g>
<defs>
<clipPath id="clip0_338_31934">
<rect width="256" height="256" fill="white"/>
</clipPath>
</defs>
</svg>
