<svg width="256" height="256" viewBox="0 0 256 256" fill="none" xmlns="http://www.w3.org/2000/svg">
<g clip-path="url(#clip0_338_34006)">
<rect width="256" height="256" fill="#0053E2"/>
<g clip-path="url(#clip1_338_34006)">
<mask id="mask0_338_34006" style="mask-type:luminance" maskUnits="userSpaceOnUse" x="40" y="34" width="192" height="190">
<path d="M40.1299 34.9883H231.857V223.41H40.1299V34.9883Z" fill="white"/>
</mask>
<g mask="url(#mask0_338_34006)">
<path d="M128.242 104.969C131.777 104.969 134.695 103.162 135.086 100.83L138.574 62.0229C138.574 58.1761 134.007 55.0289 128.254 55.0289C122.513 55.0289 117.946 58.1761 117.946 62.0229L121.433 100.83C121.813 103.162 124.731 104.969 128.254 104.969H128.242Z" fill="#FFB819"/>
</g>
<mask id="mask1_338_34006" style="mask-type:luminance" maskUnits="userSpaceOnUse" x="40" y="34" width="192" height="190">
<path d="M40.1299 34.9883H231.857V223.41H40.1299V34.9883Z" fill="white"/>
</mask>
<g mask="url(#mask1_338_34006)">
<path d="M106.896 117.095C108.675 114.087 108.533 110.706 106.671 109.203L74.2048 86.8324C70.836 84.9088 65.771 87.2288 62.9003 92.113C60.018 97.0091 60.5281 102.465 63.8968 104.388L99.8382 120.837C102.092 121.653 105.141 120.079 106.908 117.072L106.896 117.095Z" fill="#FFB819"/>
</g>
<mask id="mask2_338_34006" style="mask-type:luminance" maskUnits="userSpaceOnUse" x="40" y="34" width="192" height="190">
<path d="M40.1299 34.9883H231.857V223.41H40.1299V34.9883Z" fill="white"/>
</mask>
<g mask="url(#mask2_338_34006)">
<path d="M149.604 117.07C151.371 120.078 154.42 121.651 156.673 120.824L192.615 104.387C195.995 102.463 196.482 97.0079 193.623 92.1115C190.741 87.2155 185.676 84.9073 182.307 86.8309L149.841 109.201C147.991 110.705 147.848 114.086 149.616 117.093L149.604 117.07Z" fill="#FFB819"/>
</g>
<mask id="mask3_338_34006" style="mask-type:luminance" maskUnits="userSpaceOnUse" x="40" y="34" width="192" height="190">
<path d="M40.1299 34.9883H231.857V223.41H40.1299V34.9883Z" fill="white"/>
</mask>
<g mask="url(#mask3_338_34006)">
<path d="M128.242 153.447C131.777 153.447 134.695 155.242 135.086 157.573L138.574 196.381C138.574 200.227 134.007 203.375 128.254 203.375C122.513 203.375 117.946 200.227 117.946 196.381L121.433 157.573C121.813 155.242 124.731 153.447 128.254 153.447H128.242Z" fill="#FFB819"/>
</g>
<mask id="mask4_338_34006" style="mask-type:luminance" maskUnits="userSpaceOnUse" x="40" y="34" width="192" height="190">
<path d="M40.1299 34.9883H231.857V223.41H40.1299V34.9883Z" fill="white"/>
</mask>
<g mask="url(#mask4_338_34006)">
<path d="M149.604 141.327C151.371 138.319 154.42 136.757 156.673 137.585L192.615 154.01C195.995 155.933 196.482 161.401 193.623 166.297C190.741 171.169 185.676 173.489 182.307 171.578L149.841 149.219C147.991 147.703 147.848 144.323 149.616 141.315L149.604 141.327Z" fill="#FFB819"/>
</g>
<mask id="mask5_338_34006" style="mask-type:luminance" maskUnits="userSpaceOnUse" x="40" y="34" width="192" height="190">
<path d="M40.1299 34.9883H231.857V223.41H40.1299V34.9883Z" fill="white"/>
</mask>
<g mask="url(#mask5_338_34006)">
<path d="M106.896 141.32C108.675 144.328 108.533 147.709 106.671 149.224L74.2048 171.571C70.836 173.495 65.771 171.175 62.9003 166.29C60.018 161.406 60.5281 155.939 63.8968 154.015L99.8382 137.578C102.092 136.751 105.141 138.313 106.908 141.332L106.896 141.32Z" fill="#FFB819"/>
</g>
</g>
<path d="M169.808 256H86.1929L128 214.192L169.808 256ZM41.8081 128L0.000488281 169.808V86.1924L41.8081 128ZM256 169.808L214.193 128L256 86.1924V169.808ZM128 41.8076L86.1929 0H169.808L128 41.8076Z" fill="black" fill-opacity="0.5"/>
</g>
<defs>
<clipPath id="clip0_338_34006">
<rect width="256" height="256" fill="white"/>
</clipPath>
<clipPath id="clip1_338_34006">
<rect width="176" height="176" fill="white" transform="translate(43.2002 40)"/>
</clipPath>
</defs>
</svg>
